<svg width="25" height="24" viewBox="0 0 25 24" fill="none" xmlns="http://www.w3.org/2000/svg">
<g clip-path="url(#clip0_2820_10397)">
<path d="M18.4467 19.999H4.24383V5.99902H13.3743V3.99902H4.24383C3.12789 3.99902 2.21484 4.89902 2.21484 5.99902V19.999C2.21484 21.099 3.12789 21.999 4.24383 21.999H18.4467C19.5627 21.999 20.4757 21.099 20.4757 19.999V10.999H18.4467V19.999ZM10.5438 16.829L8.55542 14.469L5.76557 17.999H16.925L13.3337 13.289L10.5438 16.829ZM20.4757 3.99902V0.999023H18.4467V3.99902H15.4032C15.4134 4.00902 15.4032 5.99902 15.4032 5.99902H18.4467V8.98902C18.4569 8.99902 20.4757 8.98902 20.4757 8.98902V5.99902H23.5192V3.99902H20.4757Z" fill="#828282"/>
</g>
<defs>
<clipPath id="clip0_2820_10397">
<rect width="24.3478" height="24" fill="white" transform="translate(0.1875 -0.000976562)"/>
</clipPath>
</defs>
</svg>
