<svg width="12" height="16" viewBox="0 0 12 16" fill="none" xmlns="http://www.w3.org/2000/svg">
<path fillRule="evenodd" clipRule="evenodd" d="M7.33997 0.836872C7.66275 0.941849 7.88225 1.25069 7.88225 1.59986V5.59986L10.9838 5.59986C11.2729 5.59986 11.538 5.76583 11.6715 6.03041C11.805 6.295 11.7848 6.61426 11.619 6.85863L6.19132 14.8586C5.99724 15.1447 5.64577 15.2678 5.32299 15.1629C5.00022 15.0579 4.78072 14.749 4.78072 14.3999L4.78072 10.3999H1.67919C1.39007 10.3999 1.12496 10.2339 0.991446 9.96931C0.857927 9.70473 0.878175 9.38547 1.04398 9.14109L6.47165 1.14109C6.66572 0.855037 7.0172 0.731896 7.33997 0.836872Z" fill="#F2C94C"/>
</svg>
