<svg width="18" height="22" viewBox="0 0 18 22" fill="none" xmlns="http://www.w3.org/2000/svg">
<path fillRule="evenodd" clipRule="evenodd" d="M7.91685 3.49499V1.25033C7.91685 0.652326 8.40218 0.166992 9.00018 0.166992C9.5971 0.166992 10.0835 0.652326 10.0835 1.25033V3.49499C11.6933 3.72683 13.1981 4.47432 14.3616 5.63783C15.784 7.06024 16.5835 8.98966 16.5835 11.0003V15.078L17.46 16.8308C17.8792 17.6704 17.8348 18.6671 17.3408 19.4655C16.8479 20.2639 15.9758 20.7503 15.0376 20.7503H10.0835C10.0835 21.3483 9.5971 21.8337 9.00018 21.8337C8.40218 21.8337 7.91685 21.3483 7.91685 20.7503H2.96277C2.02352 20.7503 1.15145 20.2639 0.658535 19.4655C0.164535 18.6671 0.120108 17.6704 0.540442 16.8308L1.41685 15.078V11.0003C1.41685 8.98966 2.21528 7.06024 3.6377 5.63783C4.80229 4.47432 6.30593 3.72683 7.91685 3.49499ZM9.00018 5.58365C7.5626 5.58365 6.1857 6.15458 5.16954 7.17074C4.15337 8.18583 3.58352 9.56382 3.58352 11.0003V15.3337C3.58352 15.5016 3.54345 15.6673 3.4687 15.8179C3.4687 15.8179 2.9866 16.7821 2.47744 17.7993C2.39402 17.9672 2.40269 18.1677 2.50127 18.3269C2.59986 18.4862 2.77427 18.5837 2.96277 18.5837H15.0376C15.225 18.5837 15.3995 18.4862 15.498 18.3269C15.5966 18.1677 15.6053 17.9672 15.5219 17.7993C15.0127 16.7821 14.5306 15.8179 14.5306 15.8179C14.4559 15.6673 14.4169 15.5016 14.4169 15.3337V11.0003C14.4169 9.56382 13.8459 8.18583 12.8298 7.17074C11.8136 6.15458 10.4367 5.58365 9.00018 5.58365Z" fill="white"/>
</svg>
