<svg width="25" height="25" viewBox="0 0 25 25" fill="none" xmlns="http://www.w3.org/2000/svg">
<path d="M12.4987 11.5C11.9464 11.5 11.4987 11.9477 11.4987 12.5C11.4987 13.0523 11.9464 13.5 12.4987 13.5V11.5ZM15.6237 13.5C16.176 13.5 16.6237 13.0523 16.6237 12.5C16.6237 11.9477 16.176 11.5 15.6237 11.5V13.5ZM12.4987 15.6667C11.9464 15.6667 11.4987 16.1144 11.4987 16.6667C11.4987 17.219 11.9464 17.6667 12.4987 17.6667V15.6667ZM15.6237 17.6667C16.176 17.6667 16.6237 17.219 16.6237 16.6667C16.6237 16.1144 16.176 15.6667 15.6237 15.6667V17.6667ZM9.37371 11.5C8.82143 11.5 8.37371 11.9477 8.37371 12.5C8.37371 13.0523 8.82143 13.5 9.37371 13.5V11.5ZM9.38413 13.5C9.93641 13.5 10.3841 13.0523 10.3841 12.5C10.3841 11.9477 9.93641 11.5 9.38413 11.5V13.5ZM9.37371 15.6667C8.82143 15.6667 8.37371 16.1144 8.37371 16.6667C8.37371 17.219 8.82143 17.6667 9.37371 17.6667V15.6667ZM9.38413 17.6667C9.93641 17.6667 10.3841 17.219 10.3841 16.6667C10.3841 16.1144 9.93641 15.6667 9.38413 15.6667V17.6667ZM18.7904 7.29167V19.7917H20.7904V7.29167H18.7904ZM17.7071 20.875H7.29037V22.875H17.7071V20.875ZM6.20703 19.7917V7.29167H4.20703V19.7917H6.20703ZM7.29037 6.20833H9.37371V4.20833H7.29037V6.20833ZM15.6237 6.20833H17.7071V4.20833H15.6237V6.20833ZM7.29037 20.875C6.69206 20.875 6.20703 20.39 6.20703 19.7917H4.20703C4.20703 21.4945 5.58749 22.875 7.29037 22.875V20.875ZM18.7904 19.7917C18.7904 20.39 18.3054 20.875 17.7071 20.875V22.875C19.41 22.875 20.7904 21.4945 20.7904 19.7917H18.7904ZM20.7904 7.29167C20.7904 5.58879 19.41 4.20833 17.7071 4.20833V6.20833C18.3054 6.20833 18.7904 6.69336 18.7904 7.29167H20.7904ZM6.20703 7.29167C6.20703 6.69336 6.69206 6.20833 7.29037 6.20833V4.20833C5.58749 4.20833 4.20703 5.58879 4.20703 7.29167H6.20703ZM12.4987 13.5H15.6237V11.5H12.4987V13.5ZM12.4987 17.6667H15.6237V15.6667H12.4987V17.6667ZM11.4571 4.125H13.5404V2.125H11.4571V4.125ZM13.5404 6.29167H11.4571V8.29167H13.5404V6.29167ZM11.4571 6.29167C10.8587 6.29167 10.3737 5.80664 10.3737 5.20833H8.37371C8.37371 6.91121 9.75417 8.29167 11.4571 8.29167V6.29167ZM14.6237 5.20833C14.6237 5.80664 14.1387 6.29167 13.5404 6.29167V8.29167C15.2433 8.29167 16.6237 6.91121 16.6237 5.20833H14.6237ZM13.5404 4.125C14.1387 4.125 14.6237 4.61003 14.6237 5.20833H16.6237C16.6237 3.50545 15.2433 2.125 13.5404 2.125V4.125ZM11.4571 2.125C9.75417 2.125 8.37371 3.50545 8.37371 5.20833H10.3737C10.3737 4.61003 10.8587 4.125 11.4571 4.125V2.125ZM9.37371 13.5H9.38413V11.5H9.37371V13.5ZM9.37371 17.6667H9.38413V15.6667H9.37371V17.6667Z" fill="#828282"/>
</svg>
