<svg width="110" height="100" viewBox="0 0 110 100" fill="none" xmlns="http://www.w3.org/2000/svg">
<path d="M67.7426 53.8144L57.4301 44.4394C56.7854 43.8535 55.9113 43.5244 54.9998 43.5244C54.0883 43.5244 53.2141 43.8535 52.5694 44.4394L42.2569 53.8144C41.6308 54.4037 41.2843 55.1931 41.2921 56.0125C41.3 56.8319 41.6615 57.6157 42.2988 58.1951C42.9362 58.7745 43.7983 59.1031 44.6996 59.1102C45.6009 59.1173 46.4692 58.8024 47.1176 58.2331L51.5623 54.1925V71.5582C51.5623 72.387 51.9244 73.1818 52.5691 73.7679C53.2137 74.3539 54.0881 74.6832 54.9998 74.6832C55.9114 74.6832 56.7858 74.3539 57.4304 73.7679C58.0751 73.1818 58.4373 72.387 58.4373 71.5582V54.1925L62.8819 58.2331C63.5303 58.8024 64.3986 59.1173 65.2999 59.1102C66.2012 59.1031 67.0634 58.7745 67.7007 58.1951C68.338 57.6157 68.6996 56.8319 68.7074 56.0125C68.7152 55.1931 68.3687 54.4037 67.7426 53.8144Z" fill="#7C64F8"/>
<path d="M85.9375 31.2509C84.7264 31.2495 83.5175 31.3447 82.3247 31.5352C81.593 25.7214 78.6411 20.3252 73.9832 16.2863C69.3253 12.2475 63.2566 9.82208 56.8339 9.43246C50.4113 9.04284 44.0419 10.7137 38.835 14.1541C33.6281 17.5945 29.9137 22.5864 28.3388 28.2602C27.4898 28.1703 26.6359 28.1255 25.7812 28.1259C19.8553 28.1259 14.1721 30.2659 9.98183 34.0753C5.79157 37.8846 3.4375 43.0511 3.4375 48.4384C3.4375 53.8256 5.79157 58.9921 9.98183 62.8015C14.1721 66.6108 19.8553 68.7509 25.7812 68.7509H37.8125C38.7242 68.7509 39.5985 68.4216 40.2432 67.8356C40.8878 67.2495 41.25 66.4547 41.25 65.6259C41.25 64.7971 40.8878 64.0022 40.2432 63.4161C39.5985 62.8301 38.7242 62.5009 37.8125 62.5009H25.7812C21.6787 62.5009 17.7441 61.0193 14.8432 58.382C11.9422 55.7448 10.3125 52.168 10.3125 48.4384C10.3125 44.7088 11.9422 41.1319 14.8432 38.4947C17.7441 35.8574 21.6787 34.3759 25.7812 34.3759C27.2464 34.3737 28.7038 34.5696 30.1056 34.9571C30.5901 35.0914 31.1012 35.1266 31.6024 35.0604C32.1036 34.9942 32.5826 34.8281 33.0049 34.574C33.4273 34.3199 33.7827 33.9841 34.0457 33.5906C34.3087 33.1971 34.4728 32.7556 34.5262 32.2977C35.1573 27.5712 37.7428 23.2399 41.7579 20.1828C45.773 17.1256 50.9171 15.5716 56.1464 15.836C61.3756 16.1004 66.2984 18.1635 69.9159 21.6066C73.5333 25.0496 75.5744 29.6148 75.625 34.3759C75.6353 34.6804 75.6239 34.9852 75.5906 35.2884C75.5068 35.841 75.5872 36.404 75.8235 36.9189C76.0599 37.4337 76.4435 37.8817 76.9346 38.2162C77.4258 38.5507 78.0064 38.7596 78.6163 38.8212C79.2263 38.8828 79.8432 38.7949 80.4031 38.5665C82.1424 37.8544 84.03 37.491 85.9375 37.5009C89.5842 37.5009 93.0816 38.8178 95.6602 41.162C98.2388 43.5062 99.6875 46.6857 99.6875 50.0009C99.6875 53.3161 98.2388 56.4955 95.6602 58.8397C93.0816 61.1839 89.5842 62.5009 85.9375 62.5009H72.1875C71.2758 62.5009 70.4015 62.8301 69.7568 63.4161C69.1122 64.0022 68.75 64.7971 68.75 65.6259C68.75 66.4547 69.1122 67.2495 69.7568 67.8356C70.4015 68.4216 71.2758 68.7509 72.1875 68.7509H85.9375C91.4076 68.7509 96.6536 66.7754 100.522 63.2591C104.39 59.7428 106.562 54.9737 106.562 50.0009C106.562 45.028 104.39 40.2589 100.522 36.7426C96.6536 33.2263 91.4076 31.2509 85.9375 31.2509Z" fill="#828282"/>
</svg>
