<svg width="26" height="26" viewBox="0 0 26 26" fill="none" xmlns="http://www.w3.org/2000/svg">
<path d="M13.0007 0.273438C5.97526 0.273438 0.273438 5.97526 0.273438 13.0007C0.273438 20.0262 5.97526 25.728 13.0007 25.728C20.0262 25.728 25.728 20.0262 25.728 13.0007C25.728 5.97526 20.0262 0.273438 13.0007 0.273438ZM13.0007 23.1825C7.38798 23.1825 2.81889 18.6134 2.81889 13.0007C2.81889 7.38798 7.38798 2.81889 13.0007 2.81889C18.6134 2.81889 23.1825 7.38798 23.1825 13.0007C23.1825 18.6134 18.6134 23.1825 13.0007 23.1825ZM13.3953 11.9062C11.1425 11.3334 10.4171 10.7098 10.4171 9.78071C10.4171 8.71162 11.4225 7.96071 13.0898 7.96071C14.8462 7.96071 15.508 8.80071 15.5589 10.048H17.7353C17.6716 8.34253 16.628 6.77707 14.5662 6.26798V4.09162H11.6007V6.24253C9.67889 6.6498 8.13889 7.89707 8.13889 9.81889C8.13889 12.0971 10.0353 13.2425 12.7971 13.9043C15.2789 14.4898 15.7753 15.368 15.7753 16.2843C15.7753 16.9589 15.2789 18.0534 13.1025 18.0534C11.0662 18.0534 10.2643 17.1371 10.1498 15.9662H7.96071C8.08798 18.1298 9.69162 19.3516 11.6007 19.7462V21.9098H14.5789V19.7843C16.5134 19.4153 18.0407 18.308 18.0534 16.2589C18.0407 13.4589 15.6353 12.4916 13.3953 11.9062Z" fill="#2099FF"/>
</svg>
