<svg width="21" height="19" viewBox="0 0 21 19" fill="none" xmlns="http://www.w3.org/2000/svg">
<path d="M14.925 -0.000976562C13.1598 -0.000976562 11.4656 0.809024 10.3598 2.08902C9.25397 0.809024 7.55977 -0.000976562 5.79455 -0.000976562C2.66992 -0.000976562 0.214844 2.41902 0.214844 5.49902C0.214844 9.27902 3.66412 12.359 8.88876 17.039L10.3598 18.349L11.8308 17.029C17.0554 12.359 20.5047 9.27902 20.5047 5.49902C20.5047 2.41902 18.0496 -0.000976562 14.925 -0.000976562ZM10.4612 15.549L10.3598 15.649L10.2583 15.549C5.42934 11.239 2.24383 8.38902 2.24383 5.49902C2.24383 3.49902 3.76557 1.99902 5.79455 1.99902C7.35687 1.99902 8.87861 2.98902 9.41629 4.35902H11.3134C11.8409 2.98902 13.3627 1.99902 14.925 1.99902C16.954 1.99902 18.4757 3.49902 18.4757 5.49902C18.4757 8.38902 15.2902 11.239 10.4612 15.549Z" fill="#828282"/>
</svg>
