<svg width="159" height="57" viewBox="0 0 159 57" fill="none" xmlns="http://www.w3.org/2000/svg">
<g clip-path="url(#clip0_1045_2747)">
<path d="M26.6278 1.7762e-05C19.9593 -0.00277369 13.5325 2.48937 8.61811 6.98371C3.7037 11.4781 0.659395 17.6474 0.0871191 24.272C-0.485156 30.8966 1.45626 37.4942 5.5275 42.7603C9.59875 48.0263 15.5035 51.5776 22.0742 52.7119V42.2978H19.183V38.9177C17.155 37.6866 15.4712 35.9654 14.2874 33.9133C13.1036 31.8611 12.458 29.5444 12.4104 27.1775C12.3951 26.0649 12.6108 24.9611 13.0441 23.9356C13.4774 22.9101 14.1189 21.9851 14.9281 21.2188C15.7373 20.4525 16.6969 19.8615 17.7463 19.483C18.7958 19.1044 19.9125 18.9465 21.0261 19.0192C31.0946 19.4444 40.5777 17.4049 40.5777 26.9469C40.5784 29.3516 39.9584 31.7159 38.7773 33.8125C37.5962 35.909 35.8939 37.6671 33.834 38.9177V42.3194H30.9428V52.7551C37.5484 51.6814 43.5061 48.1668 47.6302 42.911C51.7543 37.6551 53.7421 31.0435 53.1981 24.3923C52.6541 17.741 49.618 11.538 44.6944 7.01793C39.7707 2.49786 33.3205 -0.00769682 26.6278 1.7762e-05ZM29.2732 15.8554H23.0788C22.6748 15.8568 22.2778 15.7493 21.93 15.5442C21.5822 15.3391 21.2966 15.044 21.1032 14.6902C20.9099 14.3364 20.8161 13.9371 20.8318 13.5345C20.8475 13.1319 20.9721 12.741 21.1924 12.4032L22.5657 10.2411C22.9542 9.63709 23.4888 9.14012 24.1203 8.79592C24.7518 8.45172 25.4599 8.27133 26.1796 8.27133C26.8993 8.27133 27.6075 8.45172 28.239 8.79592C28.8705 9.14012 29.4051 9.63709 29.7936 10.2411L31.1741 12.4032C31.3926 12.7425 31.5152 13.1343 31.529 13.5372C31.5429 13.9401 31.4475 14.3394 31.2529 14.6928C31.0583 15.0462 30.7716 15.3407 30.4232 15.5453C30.0748 15.7499 29.6775 15.857 29.2732 15.8554Z" fill="#7C64F8"/>
<path d="M69.9736 29.1163C69.9736 28.8929 69.9736 28.6767 69.9736 28.4533C70.0888 26.2759 70.352 24.1088 70.7614 21.967C71.0077 19.9978 71.5333 18.0735 72.3227 16.2519C73.0455 14.7312 74.1152 13.4123 75.8788 13.1673C76.3928 13.0831 76.9183 13.1002 77.4256 13.2177C77.9385 13.4579 78.4674 13.6625 79.0085 13.8303C79.8108 13.9384 80.6565 13.6357 81.4949 13.7006C82.2706 13.7606 83.0317 13.9431 83.75 14.2411C89.0409 16.4032 90.6238 22.8246 90.6599 27.9704C90.6449 30.3421 90.4589 32.7097 90.1034 35.0549C89.7637 37.5413 89.4745 40.1358 88.3036 42.3916C86.2003 46.4347 81.0757 47.9049 76.9991 46.0671C74.7932 45.1052 73.0184 43.3689 72.0119 41.188C71.1983 39.1431 70.654 37.0016 70.3928 34.817C70.108 32.9302 69.9679 31.0244 69.9736 29.1163ZM84.9065 27.9344C84.9065 24.0498 84.256 17.7942 79.4639 17.1599C79.1645 17.104 78.8552 17.1688 78.6037 17.3401C77.9966 17.8302 77.8809 18.9977 77.6858 19.704C77.4473 20.6697 77.2521 21.6499 77.0859 22.63C76.1968 27.9128 75.8716 33.491 77.4328 38.6872C77.7461 39.8133 78.271 40.8698 78.9796 41.8006C79.594 42.5213 80.7504 43.242 81.6828 42.6006C82.6152 41.9592 82.9044 40.8997 83.2152 39.97C83.8223 38.1611 83.938 36.2873 84.2271 34.4279C84.6135 32.3753 84.8382 30.2958 84.8993 28.2082C84.9065 28.1073 84.9065 28.0281 84.9065 27.9344Z" fill="#7C64F8"/>
<path d="M96.435 56.935C96.113 56.8724 95.7999 56.7707 95.5026 56.6323C94.9754 56.3293 94.5771 55.845 94.3823 55.2702C94.2928 55.0361 94.2227 54.795 94.1727 54.5495C93.6306 52.0199 93.2114 49.4614 92.85 46.9029C92.2517 42.8285 92.087 38.7024 92.3585 34.5934C92.4958 32.6691 92.3585 30.7304 92.4235 28.8278C92.4886 27.1053 92.6837 25.3829 92.8138 23.6604C92.8644 23.0046 93.2041 22.6082 93.8691 22.6298C94.9942 22.5724 96.1216 22.6793 97.2156 22.9469C97.989 23.2208 98.5311 24.1361 99.2539 24.8423C99.4033 24.7754 99.5441 24.6907 99.6731 24.5901C101.567 23.0838 103.764 23.019 106.005 23.3073C106.56 23.3939 107.091 23.5958 107.563 23.8999C108.035 24.2041 108.437 24.6038 108.744 25.073C109.091 25.5797 109.352 26.1396 109.518 26.7306C109.69 27.4744 109.763 28.2378 109.734 29.0008C109.734 30.6584 109.734 32.3088 109.597 33.9592C109.539 34.7808 109.445 35.5952 109.315 36.4095C109.257 36.8059 109.185 37.1951 109.091 37.5843C109.048 37.7789 108.997 37.9807 108.939 38.1753L108.853 38.4635C108.807 38.552 108.776 38.6468 108.759 38.7446C108.686 38.968 108.6 39.1842 108.513 39.4004L108.368 39.7248C108.332 39.804 108.217 39.9626 108.217 40.0419C107.646 41.1998 106.821 42.2147 105.802 43.0111C105.296 43.487 104.65 43.7877 103.959 43.8688C103.467 43.807 102.983 43.6959 102.514 43.5373C102.022 43.4784 101.538 43.3697 101.068 43.2129C100.736 43.07 100.428 42.8754 100.157 42.6364C99.6551 42.1503 99.2396 41.5825 98.9287 40.9572L98.8275 40.777C98.8204 40.7462 98.8204 40.7141 98.8275 40.6833C98.8275 40.4166 100.107 40.3878 100.316 40.359C100.957 40.2882 101.545 39.9731 101.957 39.4797C102.847 38.2368 103.404 36.7882 103.576 35.2708C103.747 34.2691 103.86 33.2585 103.916 32.2439C103.974 31.4151 104.01 30.5791 104.032 29.7431C104.053 28.9071 104.111 28.1648 104.068 27.3864C104.057 27.1043 104.006 26.8252 103.916 26.5576C103.874 26.4246 103.79 26.3085 103.677 26.2261C103.569 26.162 103.44 26.139 103.316 26.1612C102.188 26.2333 101.552 27.2711 100.945 28.0783C100.431 28.7391 99.878 29.3696 99.2901 29.9665C98.9916 30.2442 98.7467 30.5739 98.5673 30.9395C98.4205 31.2756 98.3301 31.6335 98.2998 31.9989C98.2276 33.6901 98.1697 35.3717 98.1264 37.0438C98.083 38.7158 98.0396 40.3878 98.0396 42.0886C98.0396 43.0688 98.0396 44.0562 98.148 45.0363C98.3866 48.0921 98.8708 51.1406 99.3262 54.182C99.4851 54.755 99.4851 55.3602 99.3262 55.9333C98.907 56.8557 97.7939 57.0792 96.8759 56.9927C96.7362 56.9542 96.5892 56.935 96.435 56.935Z" fill="#7C64F8"/>
<path d="M158.935 27.8479C158.935 27.9416 158.935 28.0209 158.877 28.1073C158.624 29.2473 157.931 30.2417 156.947 30.8748C156.013 31.3996 155.004 31.7787 153.955 31.9991C153.607 32.0665 153.286 32.232 153.03 32.476C152.773 32.72 152.593 33.0323 152.509 33.3756C151.917 35.8188 151.252 38.2548 151.736 40.8493C151.826 41.4476 152.084 42.0083 152.481 42.4663C152.877 42.9242 153.396 43.2607 153.977 43.4366C154.316 43.5663 154.866 43.2708 155.263 43.0618C156.427 42.4564 157.222 42.7087 157.677 43.8762C157.821 44.1581 157.856 44.4823 157.778 44.7885C157.699 45.0947 157.512 45.3621 157.251 45.541C156.084 46.4753 154.6 46.9222 153.109 46.7878C152.07 46.6617 151.076 46.2873 150.213 45.6963C149.35 45.1053 148.642 44.3153 148.151 43.3933C146.286 40.2943 146.178 36.8638 146.705 33.3036C147.177 30.4686 148.18 27.7475 149.662 25.2822C150.681 23.5093 152.083 22.3994 154.23 22.3994C154.731 22.4318 155.221 22.559 155.675 22.7742C156.234 23.0426 156.757 23.3817 157.229 23.7832C157.494 23.9803 157.719 24.2246 157.894 24.5039C158.133 24.9074 158.256 25.3687 158.501 25.7723C158.624 25.9613 158.732 26.1588 158.827 26.3633C159.011 26.8361 159.049 27.3534 158.935 27.8479ZM156.159 26.947C156.109 26.947 155.878 26.7092 155.632 26.4786C155.553 26.4037 155.459 26.3474 155.356 26.3139C155.252 26.2804 155.143 26.2706 155.035 26.2851C154.927 26.2997 154.824 26.3382 154.734 26.3979C154.643 26.4576 154.567 26.5369 154.511 26.6299L154.013 27.3866C153.92 27.5293 153.88 27.7001 153.901 27.869C153.923 28.0378 154.003 28.1937 154.128 28.3091C154.425 28.583 154.757 28.9001 154.801 28.9289L156.159 26.947Z" fill="#7C64F8"/>
<path d="M77.6641 1.44141L79.6952 2.19814C81.6612 2.96208 81.8274 4.95121 82.5863 6.52233C82.926 7.19978 83.1935 7.91327 83.526 8.59794C83.9235 9.39791 84.2488 10.2123 83.5693 10.9979C83.198 11.3417 82.7257 11.5574 82.222 11.6132C81.7184 11.669 81.2101 11.5619 80.7721 11.3078C80.0239 10.8798 79.3894 10.2792 78.9218 9.55647C77.8448 7.6322 76.9558 5.60704 75.98 3.63233C75.5174 2.69542 75.6548 1.96752 76.5944 1.47023L77.6641 1.44141Z" fill="#7C64F8"/>
<path d="M121.885 30.738C121.791 29.7506 121.754 28.7921 121.588 27.8552C121.465 27.1345 120.93 26.911 120.251 27.2354C119.695 27.5092 119.167 27.8335 118.632 28.1362C118.126 28.4493 117.538 28.6049 116.944 28.583C116.349 28.5612 115.774 28.363 115.293 28.0137C114.954 27.7759 114.641 27.5029 114.36 27.1993C113.24 26.0462 113.406 24.6913 114.902 23.9922C116.572 23.1995 118.314 22.4211 120.244 22.767C123.525 23.3652 126.07 25.376 126.93 28.2227C127.891 31.4226 127.652 34.6441 127.074 37.8657C126.708 39.826 126.354 41.7887 126.012 43.7538C125.708 45.469 125.13 45.9807 123.402 46.024C123.059 45.9973 122.713 46.0339 122.383 46.1321C119.152 47.5735 116.37 46.6005 113.847 44.4889C112.507 43.2431 111.704 41.5277 111.606 39.7034C111.223 36.4747 112.669 34.0964 115.061 31.9631C117.092 30.1398 119.311 30.5506 121.885 30.738ZM121.545 34.5937L121.277 34.3054C120.735 34.6225 120.172 34.9108 119.651 35.2495C119.312 35.4868 118.997 35.7572 118.712 36.0567C117.36 37.4981 116.102 38.9395 116.543 41.1016C116.612 41.5113 116.81 41.8884 117.109 42.1776C117.409 42.4668 117.793 42.6529 118.206 42.7087C118.892 42.7592 120.294 42.125 120.374 41.6854C120.75 39.3431 121.14 36.972 121.545 34.5937Z" fill="#7C64F8"/>
<path d="M139.195 28.2945C137.945 27.8621 134.743 29.1089 133.709 30.5647C134.584 30.853 135.43 31.0908 136.261 31.4007C139.128 32.3397 141.511 34.3635 142.896 37.0365C144.79 40.777 143.193 45.0651 139.116 46.175C137.033 46.8758 134.781 46.901 132.683 46.2471C132.056 46.0554 131.472 45.7421 130.966 45.3252C130.46 44.9083 130.042 44.3959 129.735 43.8174C129.428 43.2389 129.239 42.6057 129.178 41.9541C129.117 41.3025 129.186 40.6453 129.38 40.0202C129.505 39.6651 129.764 39.3728 130.103 39.2059C130.283 39.1266 130.732 39.3932 130.912 39.6239C131.214 40.0078 131.606 40.3114 132.053 40.5076C132.501 40.7037 132.991 40.7864 133.478 40.7481C135.35 40.6977 137.251 40.8562 138.856 39.5806C139.745 38.8599 139.709 38.305 138.617 37.887C137.435 37.4333 136.229 37.0459 135.003 36.7266C131.064 35.7177 129.279 33.0799 129.72 29.0512C129.796 27.5516 130.374 26.1207 131.36 24.9865C133.377 22.8244 137.96 21.2749 140.663 23.055C142.932 24.5541 144.696 26.4279 144.84 29.3755C144.906 30.7232 143.207 33.2096 141.949 33.4691C141.227 33.6204 139.839 32.6691 139.651 31.6962C139.463 30.7232 139.326 29.5485 139.195 28.2945Z" fill="#7C64F8"/>
<path d="M117.143 18.6948C117.288 18.2493 117.462 17.8136 117.663 17.3903C118.487 15.8697 119.355 14.385 120.179 12.8716C120.692 11.9274 121.061 11.8482 121.928 12.4968C122.304 12.7412 122.698 12.958 123.106 13.1454C124.378 13.8157 124.884 14.8751 124.263 16.1579C123.374 17.9741 122.311 19.7182 121.263 21.4551C121.133 21.5807 120.979 21.6782 120.81 21.7415C120.641 21.8047 120.46 21.8324 120.28 21.8226C119.189 21.837 117.266 19.8335 117.143 18.6948Z" fill="#7C64F8"/>
<path d="M137.403 51.3496C137.871 51.3756 138.311 51.5816 138.631 51.9243C138.95 52.2669 139.124 52.7197 139.116 53.1874C139.092 53.6405 138.892 54.0665 138.559 54.3757C138.226 54.6848 137.786 54.8531 137.331 54.845C136.86 54.8262 136.415 54.6239 136.092 54.2816C135.769 53.9393 135.593 53.4843 135.603 53.0144C135.641 52.5631 135.847 52.1422 136.18 51.8343C136.512 51.5263 136.949 51.3534 137.403 51.3496Z" fill="#7C64F8"/>
<path d="M79.0013 52.9639C79.0418 52.5109 79.256 52.0909 79.5994 51.7915C79.9427 51.4921 80.3887 51.3364 80.8444 51.3568C81.0736 51.3757 81.2969 51.4394 81.5014 51.5444C81.7059 51.6494 81.8877 51.7934 82.0363 51.9684C82.185 52.1435 82.2976 52.3459 82.3678 52.5643C82.438 52.7828 82.4644 53.0128 82.4454 53.2414C82.4264 53.4699 82.3624 53.6925 82.2572 53.8965C82.1519 54.1004 82.0074 54.2816 81.8319 54.4299C81.6564 54.5781 81.4533 54.6904 81.2343 54.7604C81.0152 54.8304 80.7845 54.8566 80.5553 54.8377C80.3293 54.8179 80.1095 54.7535 79.9087 54.6482C79.7078 54.543 79.53 54.3991 79.3854 54.2247C79.2408 54.0504 79.1324 53.8492 79.0665 53.6327C79.0005 53.4163 78.9784 53.189 79.0013 52.9639Z" fill="#7C64F8"/>
<path d="M154.996 53.0432C155 53.2742 154.96 53.5038 154.875 53.7189C154.791 53.9341 154.665 54.1306 154.505 54.2973C154.344 54.4639 154.153 54.5974 153.94 54.6901C153.728 54.7829 153.5 54.8331 153.268 54.8378C153.037 54.8425 152.806 54.8017 152.591 54.7177C152.375 54.6337 152.178 54.5082 152.011 54.3482C151.843 54.1883 151.71 53.9971 151.617 53.7855C151.524 53.574 151.473 53.3462 151.468 53.1153C151.493 52.6612 151.683 52.2317 152.002 51.9068C152.322 51.582 152.748 51.3839 153.203 51.3496C153.659 51.3607 154.095 51.54 154.426 51.8528C154.757 52.1657 154.96 52.5898 154.996 53.0432Z" fill="#7C64F8"/>
</g>
<defs>
<clipPath id="clip0_1045_2747">
<rect width="159" height="57" fill="white"/>
</clipPath>
</defs>
</svg>
