<svg width="25" height="25" viewBox="0 0 25 25" fill="none" xmlns="http://www.w3.org/2000/svg">
<path d="M12.4997 11.5C11.9474 11.5 11.4997 11.9477 11.4997 12.5C11.4997 13.0523 11.9474 13.5 12.4997 13.5V11.5ZM15.6247 13.5C16.177 13.5 16.6247 13.0523 16.6247 12.5C16.6247 11.9477 16.177 11.5 15.6247 11.5V13.5ZM12.4997 15.6667C11.9474 15.6667 11.4997 16.1144 11.4997 16.6667C11.4997 17.219 11.9474 17.6667 12.4997 17.6667V15.6667ZM15.6247 17.6667C16.177 17.6667 16.6247 17.219 16.6247 16.6667C16.6247 16.1144 16.177 15.6667 15.6247 15.6667V17.6667ZM9.37469 11.5C8.8224 11.5 8.37469 11.9477 8.37469 12.5C8.37469 13.0523 8.8224 13.5 9.37469 13.5V11.5ZM9.38511 13.5C9.93739 13.5 10.3851 13.0523 10.3851 12.5C10.3851 11.9477 9.93739 11.5 9.38511 11.5V13.5ZM9.37469 15.6667C8.8224 15.6667 8.37469 16.1144 8.37469 16.6667C8.37469 17.219 8.8224 17.6667 9.37469 17.6667V15.6667ZM9.38511 17.6667C9.93739 17.6667 10.3851 17.219 10.3851 16.6667C10.3851 16.1144 9.93739 15.6667 9.38511 15.6667V17.6667ZM18.7914 7.29167V19.7917H20.7914V7.29167H18.7914ZM17.708 20.875H7.29135V22.875H17.708V20.875ZM6.20801 19.7917V7.29167H4.20801V19.7917H6.20801ZM7.29135 6.20833H9.37469V4.20833H7.29135V6.20833ZM15.6247 6.20833H17.708V4.20833H15.6247V6.20833ZM7.29135 20.875C6.69303 20.875 6.20801 20.39 6.20801 19.7917H4.20801C4.20801 21.4945 5.58847 22.875 7.29135 22.875V20.875ZM18.7914 19.7917C18.7914 20.39 18.3064 20.875 17.708 20.875V22.875C19.4109 22.875 20.7914 21.4945 20.7914 19.7917H18.7914ZM20.7914 7.29167C20.7914 5.58879 19.4109 4.20833 17.708 4.20833V6.20833C18.3064 6.20833 18.7914 6.69336 18.7914 7.29167H20.7914ZM6.20801 7.29167C6.20801 6.69336 6.69303 6.20833 7.29135 6.20833V4.20833C5.58847 4.20833 4.20801 5.58879 4.20801 7.29167H6.20801ZM12.4997 13.5H15.6247V11.5H12.4997V13.5ZM12.4997 17.6667H15.6247V15.6667H12.4997V17.6667ZM11.458 4.125H13.5414V2.125H11.458V4.125ZM13.5414 6.29167H11.458V8.29167H13.5414V6.29167ZM11.458 6.29167C10.8597 6.29167 10.3747 5.80664 10.3747 5.20833H8.37469C8.37469 6.91121 9.75515 8.29167 11.458 8.29167V6.29167ZM14.6247 5.20833C14.6247 5.80664 14.1397 6.29167 13.5414 6.29167V8.29167C15.2442 8.29167 16.6247 6.91121 16.6247 5.20833H14.6247ZM13.5414 4.125C14.1397 4.125 14.6247 4.61003 14.6247 5.20833H16.6247C16.6247 3.50545 15.2442 2.125 13.5414 2.125V4.125ZM11.458 2.125C9.75515 2.125 8.37469 3.50545 8.37469 5.20833H10.3747C10.3747 4.61003 10.8597 4.125 11.458 4.125V2.125ZM9.37469 13.5H9.38511V11.5H9.37469V13.5ZM9.37469 17.6667H9.38511V15.6667H9.37469V17.6667Z" fill="#828282"/>
</svg>
