<svg width="50" height="50" viewBox="0 0 60 60" fill="none" xmlns="http://www.w3.org/2000/svg">
<circle cx="30" cy="30" r="26.25" fill="#FFFA37"/>
<path fillRule="evenodd" clipRule="evenodd" d="M39.4229 15.3478C37.6126 13.0665 34.6261 11.25 30.0221 11.25C26.0796 11.2888 18.1946 13.4708 18.1946 21.8883C18.1946 23.1177 18.2919 24.764 18.3769 25.9765C18.2767 25.9474 18.1535 25.8929 17.9583 25.7993L17.9312 25.7862C17.5859 25.6205 17.061 25.3684 16.3309 25.3684C15.5934 25.3684 14.8802 25.6574 14.3508 26.0857C13.8245 26.5115 13.375 27.1659 13.375 27.9573C13.375 28.947 13.932 29.6041 14.5833 30.0254C15.1619 30.3996 15.8913 30.6386 16.4688 30.8277L16.5259 30.8465C17.144 31.0492 17.5971 31.2038 17.9094 31.3985C18.1525 31.55 18.1895 31.6459 18.194 31.737C18.1908 31.7499 18.1834 31.7779 18.1672 31.8233C18.1339 31.917 18.0784 32.0436 17.9974 32.2019C17.8357 32.5176 17.6 32.9059 17.3196 33.3199C16.7538 34.1552 16.0634 35.0119 15.5477 35.508C15.039 35.9973 14.2043 36.6055 13.3316 37.0895C12.8987 37.3296 12.4755 37.5285 12.0969 37.6651C11.706 37.8061 11.4196 37.8599 11.2426 37.8599C11.1026 37.8599 10.9813 37.8887 10.9284 37.9019C10.854 37.9206 10.777 37.9451 10.7009 37.9737C10.5498 38.0305 10.3698 38.1156 10.1915 38.2356C9.85081 38.4649 9.375 38.9272 9.375 39.6565C9.375 40.0373 9.46437 40.3595 9.61884 40.6391C9.75406 40.8838 9.92789 41.0696 10.0279 41.1764L10.0428 41.1923L10.0705 41.222C10.6207 41.814 11.5314 42.2259 12.4155 42.5084C13.1752 42.7513 14.0246 42.9322 14.8523 43.0409C14.864 43.0942 14.8762 43.1517 14.8896 43.2147L14.8939 43.235C14.946 43.4807 15.015 43.8063 15.1166 44.1063C15.2125 44.3895 15.3862 44.8082 15.7418 45.1064C16.1947 45.4862 16.787 45.5247 17.1735 45.5231C17.5884 45.5214 18.0728 45.463 18.5324 45.4076L18.5715 45.4029C19.2183 45.325 19.8948 45.2445 20.5956 45.2445C21.8744 45.2445 22.694 45.7787 23.9802 46.657L23.9888 46.663C24.4343 46.9672 24.9331 47.3078 25.5 47.6428C27.3979 48.7643 28.9398 48.7546 29.8138 48.7491C29.8715 48.7488 29.9262 48.7484 29.9779 48.7484C30.0297 48.7484 30.0847 48.7488 30.1428 48.7491C31.0181 48.7547 32.6011 48.7649 34.5 47.6428C35.0669 47.3078 35.5657 46.9672 36.0111 46.663L36.0198 46.657C37.306 45.7787 38.1256 45.2445 39.4044 45.2445C40.1052 45.2445 40.7817 45.325 41.4285 45.4029L41.4676 45.4076C41.9272 45.463 42.4116 45.5214 42.8265 45.5231C43.213 45.5247 43.8053 45.4862 44.2582 45.1064C44.6138 44.8082 44.7875 44.3895 44.8834 44.1063C44.985 43.8063 45.054 43.4808 45.1061 43.235L45.1104 43.2147C45.1238 43.1517 45.136 43.0942 45.1477 43.0409C45.9754 42.9322 46.8248 42.7513 47.5845 42.5084C48.4686 42.2259 49.3794 41.8139 49.9296 41.2219L49.9572 41.1923L49.972 41.1765C50.0721 41.0696 50.2459 40.8839 50.3812 40.6391C50.5356 40.3595 50.625 40.0373 50.625 39.6565C50.625 38.9272 50.1492 38.4649 49.8085 38.2356C49.6302 38.1156 49.4502 38.0305 49.2991 37.9737C49.223 37.9451 49.146 37.9206 49.0716 37.9019C49.0187 37.8887 48.8974 37.8599 48.7574 37.8599C48.5804 37.8599 48.294 37.8061 47.9031 37.6651C47.5245 37.5285 47.1013 37.3296 46.6685 37.0895C45.7957 36.6055 44.961 35.9973 44.4523 35.508C43.9366 35.0119 43.2462 34.1552 42.6804 33.3199C42.4 32.9059 42.1643 32.5176 42.0026 32.2019C41.9216 32.0436 41.8661 31.917 41.8328 31.8233C41.8166 31.7779 41.8092 31.7499 41.806 31.737C41.8105 31.6459 41.8475 31.55 42.0906 31.3985C42.4029 31.2038 42.856 31.0492 43.4741 30.8465L43.5312 30.8277C44.1087 30.6386 44.8381 30.3996 45.4167 30.0254C46.068 29.6041 46.625 28.947 46.625 27.9573C46.625 27.1659 46.1755 26.5115 45.6492 26.0857C45.1198 25.6574 44.4067 25.3684 43.6691 25.3684C42.9391 25.3684 42.4141 25.6205 42.0689 25.7862L42.0417 25.7993C41.8465 25.8929 41.7233 25.9474 41.6231 25.9765C41.7081 24.764 41.8054 23.1177 41.8054 21.8883C41.8054 20.2194 41.1987 17.5857 39.4229 15.3478ZM22.0936 16.4489C20.5915 18.329 20.0769 20.5616 20.0769 21.8883C20.0769 23.1185 20.1811 24.8275 20.2691 26.0529C20.2983 26.4599 20.2148 26.9343 19.8594 27.3109C19.4997 27.6921 19.0102 27.8158 18.573 27.8158C17.9417 27.8158 17.4615 27.5848 17.1543 27.4371L17.1187 27.4199C16.776 27.2556 16.5958 27.1792 16.3309 27.1792C16.0899 27.1792 15.7957 27.2827 15.5624 27.4715C15.3259 27.6628 15.2574 27.8501 15.2574 27.9573C15.2574 28.1754 15.3378 28.3313 15.6336 28.5227C15.983 28.7486 16.4808 28.9185 17.1334 29.1326L17.1902 29.1512C17.7321 29.3287 18.4033 29.5486 18.933 29.8788C19.5276 30.2494 20.0769 30.8451 20.0769 31.7627C20.0769 32.0033 20.0104 32.2348 19.948 32.4102C19.8802 32.6004 19.7887 32.8015 19.6861 33.0019C19.4805 33.4035 19.2024 33.8571 18.8967 34.3084C18.2903 35.2038 17.5194 36.1721 16.8787 36.7884C16.231 37.4115 15.2569 38.1119 14.2717 38.6583C13.7756 38.9335 13.2575 39.1803 12.758 39.3605C12.3109 39.5219 11.829 39.6483 11.3667 39.668C11.3552 39.6729 11.3425 39.6787 11.3291 39.6854C11.3078 39.6961 11.2879 39.7077 11.2705 39.7194L11.2616 39.7255C11.2633 39.738 11.2653 39.7472 11.267 39.7537C11.2707 39.7682 11.2751 39.7785 11.281 39.7892C11.2991 39.822 11.3277 39.8586 11.4433 39.9825L11.4737 40.015C11.682 40.2391 12.1953 40.53 13.009 40.79C13.784 41.0377 14.7004 41.2166 15.5663 41.2988C15.9995 41.3398 16.2491 41.6105 16.3548 41.7564C16.4636 41.9065 16.5258 42.065 16.5622 42.1702C16.6325 42.3739 16.6856 42.6247 16.7275 42.8225L16.7339 42.8526C16.7911 43.1222 16.8411 43.3527 16.9064 43.5454C16.9295 43.6135 16.9508 43.6654 16.9691 43.7035C17.0104 43.7082 17.0737 43.7127 17.1655 43.7123C17.5636 43.7107 17.9622 43.6514 18.3567 43.6038C18.9877 43.5278 19.7687 43.4337 20.5956 43.4337C22.5133 43.4337 23.7787 44.2983 25.0012 45.1336L25.0698 45.1805C25.5221 45.4894 25.9755 45.7986 26.4853 46.0999C27.9219 46.9489 29.0151 46.9427 29.8137 46.9383C29.8699 46.9379 29.9246 46.9376 29.9779 46.9376C30.0308 46.9376 30.0852 46.9379 30.1411 46.9382C30.9486 46.9426 32.0784 46.9487 33.5147 46.0999C34.0245 45.7986 34.4779 45.4894 34.9302 45.1805L34.9988 45.1336C36.2213 44.2983 37.4867 43.4337 39.4044 43.4337C40.2313 43.4337 41.0123 43.5278 41.6434 43.6038L41.6624 43.6061C42.1727 43.6676 42.5462 43.7112 42.8345 43.7123C42.9263 43.7127 42.9896 43.7082 43.0309 43.7035C43.0492 43.6654 43.0705 43.6135 43.0936 43.5454C43.1589 43.3527 43.2089 43.1222 43.2661 42.8526L43.2725 42.8225C43.3144 42.6246 43.3675 42.3739 43.4378 42.1702C43.4742 42.065 43.5364 41.9065 43.6452 41.7564C43.7509 41.6105 44.0005 41.3398 44.4337 41.2988C45.2996 41.2166 46.216 41.0377 46.991 40.79C47.8047 40.53 48.318 40.2392 48.5263 40.015L48.5567 39.9825C48.6723 39.8586 48.7009 39.822 48.719 39.7892C48.7249 39.7785 48.7293 39.7682 48.733 39.7537C48.7347 39.7472 48.7367 39.738 48.7384 39.7255L48.7295 39.7194C48.7121 39.7077 48.6922 39.6961 48.6709 39.6854C48.6575 39.6787 48.6448 39.6729 48.6333 39.668C48.171 39.6483 47.6891 39.5219 47.242 39.3605C46.7425 39.1803 46.2244 38.9335 45.7283 38.6583C44.7431 38.1119 43.769 37.4115 43.1212 36.7884C42.4806 36.1721 41.7097 35.2038 41.1033 34.3084C40.7976 33.8571 40.5195 33.4035 40.3139 33.0019C40.2113 32.8015 40.1198 32.6004 40.052 32.4102C39.9896 32.2348 39.9231 32.0033 39.9231 31.7627C39.9231 30.8451 40.4724 30.2494 41.067 29.8788C41.5967 29.5486 42.2679 29.3287 42.8098 29.1512L42.8666 29.1326C43.5192 28.9185 44.017 28.7486 44.3664 28.5227C44.6622 28.3313 44.7426 28.1754 44.7426 27.9573C44.7426 27.8501 44.6741 27.6628 44.4376 27.4715C44.2043 27.2827 43.9101 27.1792 43.6691 27.1792C43.4042 27.1792 43.224 27.2556 42.8813 27.4199L42.8456 27.4371C42.5385 27.5848 42.0583 27.8158 41.427 27.8158C40.9898 27.8158 40.5003 27.6921 40.1406 27.3109C39.7852 26.9343 39.7017 26.4599 39.7309 26.0529C39.8189 24.8275 39.9231 23.1185 39.9231 21.8883C39.9231 20.5581 39.4175 18.3254 37.9266 16.4465C36.4703 14.6112 34.0356 13.0608 30.0221 13.0608C26.008 13.0608 23.5613 14.6117 22.0936 16.4489Z" fill="black"/>
<path fillRule="evenodd" clipRule="evenodd" d="M22.0937 16.4487C20.5917 18.3288 20.0771 20.5613 20.0771 21.8881C20.0771 23.1183 20.1813 24.8272 20.2692 26.0527C20.2984 26.4597 20.215 26.9341 19.8596 27.3107C19.4998 27.6918 19.0104 27.8156 18.5731 27.8156C17.9418 27.8156 17.4616 27.5846 17.1545 27.4368L17.1188 27.4197C16.7761 27.2554 16.5959 27.179 16.331 27.179C16.09 27.179 15.7958 27.2825 15.5625 27.4713C15.326 27.6626 15.2575 27.8499 15.2575 27.957C15.2575 28.1752 15.338 28.3311 15.6338 28.5224C15.9831 28.7484 16.4809 28.9183 17.1335 29.1323L17.1903 29.151C17.7322 29.3285 18.4035 29.5484 18.9332 29.8786C19.5277 30.2492 20.0771 30.8449 20.0771 31.7625C20.0771 32.0031 20.0106 32.2346 19.9481 32.4099C19.8804 32.6002 19.7888 32.8012 19.6862 33.0016C19.4806 33.4033 19.2025 33.8569 18.8969 34.3082C18.2904 35.2036 17.5196 36.1718 16.8789 36.7882C16.2312 37.4113 15.2571 38.1116 14.2719 38.6581C13.7757 38.9332 13.2577 39.18 12.7582 39.3603C12.311 39.5216 11.8291 39.648 11.3668 39.6678C11.3553 39.6726 11.3426 39.6784 11.3293 39.6851C11.3079 39.6959 11.288 39.7075 11.2706 39.7192L11.2617 39.7253C11.2635 39.7378 11.2655 39.747 11.2671 39.7535C11.2708 39.768 11.2752 39.7783 11.2811 39.789C11.2992 39.8218 11.3278 39.8584 11.4435 39.9822L11.4738 40.0148C11.6821 40.2389 12.1954 40.5297 13.0092 40.7898C13.7842 41.0375 14.7006 41.2164 15.5664 41.2985C15.9996 41.3396 16.2493 41.6103 16.355 41.7561C16.4637 41.9063 16.526 42.0648 16.5623 42.17C16.6326 42.3736 16.6858 42.6244 16.7277 42.8223L16.734 42.8523C16.7912 43.122 16.8413 43.3525 16.9065 43.5452C16.9296 43.6133 16.9509 43.6651 16.9692 43.7033C17.0105 43.708 17.0739 43.7125 17.1656 43.7121C17.5637 43.7105 17.9623 43.6512 18.3568 43.6036C18.9879 43.5276 19.7689 43.4335 20.5957 43.4335C22.5135 43.4335 23.7789 44.2981 25.0013 45.1334L25.0699 45.1803C25.5223 45.4892 25.9756 45.7984 26.4854 46.0997C27.9221 46.9486 29.0152 46.9425 29.8139 46.938C29.87 46.9377 29.9248 46.9374 29.9781 46.9374C30.0309 46.9374 30.0853 46.9377 30.1413 46.938C30.9488 46.9424 32.0785 46.9485 33.5149 46.0997C34.0247 45.7984 34.478 45.4892 34.9304 45.1803L34.999 45.1334C36.2214 44.2981 37.4868 43.4335 39.4046 43.4335C40.2314 43.4335 41.0124 43.5276 41.6435 43.6036L41.6625 43.6059C42.1729 43.6674 42.5463 43.7109 42.8346 43.7121C42.9264 43.7125 42.9898 43.708 43.0311 43.7033C43.0494 43.6651 43.0707 43.6133 43.0937 43.5452C43.159 43.3525 43.209 43.122 43.2662 42.8523L43.2726 42.8223C43.3145 42.6244 43.3676 42.3736 43.438 42.17C43.4743 42.0648 43.5365 41.9063 43.6453 41.7561C43.751 41.6103 44.0007 41.3396 44.4339 41.2985C45.2997 41.2164 46.2161 41.0375 46.9911 40.7898C47.8048 40.5297 48.3182 40.2389 48.5265 40.0148L48.5568 39.9823C48.6724 39.8584 48.701 39.8218 48.7192 39.789C48.7251 39.7783 48.7295 39.768 48.7332 39.7535C48.7348 39.747 48.7368 39.7378 48.7386 39.7253L48.7297 39.7192C48.7123 39.7075 48.6923 39.6959 48.671 39.6851C48.6577 39.6784 48.645 39.6726 48.6334 39.6678C48.1712 39.648 47.6892 39.5216 47.2421 39.3603C46.7426 39.18 46.2246 38.9332 45.7284 38.6581C44.7432 38.1116 43.7691 37.4113 43.1214 36.7882C42.4807 36.1718 41.7098 35.2036 41.1034 34.3082C40.7978 33.8569 40.5197 33.4033 40.3141 33.0016C40.2115 32.8012 40.1199 32.6002 40.0521 32.4099C39.9897 32.2346 39.9232 32.0031 39.9232 31.7625C39.9232 30.8449 40.4725 30.2492 41.0671 29.8786C41.5968 29.5484 42.268 29.3285 42.81 29.151L42.8668 29.1323C43.5193 28.9183 44.0171 28.7484 44.3665 28.5224C44.6623 28.3311 44.7428 28.1752 44.7428 27.957C44.7428 27.8499 44.6742 27.6626 44.4377 27.4713C44.2044 27.2825 43.9102 27.179 43.6693 27.179C43.4044 27.179 43.2242 27.2554 42.8815 27.4197L42.8458 27.4368C42.5386 27.5846 42.0585 27.8156 41.4271 27.8156C40.9899 27.8156 40.5005 27.6918 40.1407 27.3107C39.7853 26.9341 39.7018 26.4597 39.7311 26.0527C39.819 24.8272 39.9232 23.1183 39.9232 21.8881C39.9232 20.5579 39.4177 18.3251 37.9268 16.4463C36.4704 14.611 34.0358 13.0605 30.0222 13.0605C26.0082 13.0605 23.5614 14.6114 22.0937 16.4487Z" fill="white"/>
</svg>
