<svg width="25" height="25" viewBox="0 0 25 25" fill="none" xmlns="http://www.w3.org/2000/svg">
<path d="M12.5 4.5356C13.2635 3.67058 14.3806 3.125 15.625 3.125C17.9262 3.125 19.7917 4.99048 19.7917 7.29167C19.7917 9.59285 17.9262 11.4583 15.625 11.4583C14.3806 11.4583 13.2635 10.9128 12.5 10.0477M15.625 21.875H3.125V20.8333C3.125 17.3816 5.92323 14.5833 9.37502 14.5833C12.8268 14.5833 15.625 17.3816 15.625 20.8333V21.875ZM15.625 21.875H21.8751V20.8333C21.8751 17.3816 19.0768 14.5833 15.625 14.5833C14.4866 14.5833 13.4193 14.8877 12.5 15.4195M13.5417 7.29167C13.5417 9.59285 11.6762 11.4583 9.37502 11.4583C7.07383 11.4583 5.20834 9.59285 5.20834 7.29167C5.20834 4.99048 7.07383 3.125 9.37502 3.125C11.6762 3.125 13.5417 4.99048 13.5417 7.29167Z" stroke="#828282" stroke-width="2" strokeLinecap="round" stroke-linejoin="round"/>
</svg>
