<svg width="21" height="24" viewBox="0 0 21 24" fill="none" xmlns="http://www.w3.org/2000/svg">
<path fillRule="evenodd" clipRule="evenodd" d="M12.2216 24C15.5727 24 18.6087 22.6758 20.8166 20.5312L16.3314 16.1273C15.2718 17.1439 13.8223 17.7705 12.2238 17.7705C11.267 17.7705 10.3637 17.5461 9.56542 17.1479L6.80373 19.734C6.17041 20.327 5.16693 20.3033 4.5624 19.6809C3.95787 19.0585 3.98121 18.0732 4.61453 17.4801L7.22463 15.036C6.66772 14.154 6.3462 13.1136 6.3462 11.9995C6.3462 8.81228 8.97767 6.22852 12.2238 6.22852C13.8964 6.22852 15.4058 6.9145 16.4761 8.01556L21.0004 3.65122C18.7788 1.39957 15.6667 0 12.2216 0C5.4718 0 0 5.37258 0 12C0 18.6274 5.4718 24 12.2216 24Z" fill="#7C64F8"/>
<path fillRule="evenodd" clipRule="evenodd" d="M10.3511 12.0913C11.3301 12.0913 12.1237 11.312 12.1237 10.3508C12.1237 9.85111 11.9093 9.4006 11.5658 9.08318C11.8333 9.01362 12.1142 8.97656 12.404 8.97656C14.2074 8.97656 15.6693 10.412 15.6693 12.1827C15.6693 13.9534 14.2074 15.3888 12.404 15.3888C10.6006 15.3888 9.13867 13.9534 9.13867 12.1827C9.13867 12.0044 9.1535 11.8294 9.182 11.6591C9.49406 11.9281 9.9032 12.0913 10.3511 12.0913Z" fill="#7C64F8"/>
</svg>
