<svg width="19" height="19" viewBox="0 0 19 19" fill="none" xmlns="http://www.w3.org/2000/svg">
<path d="M4.02551 5C4.02551 2.23858 6.59501 0 9.76464 0C12.9343 0 15.5038 2.23858 15.5038 5C15.5038 7.76142 12.9343 10 9.76464 10C6.59501 10 4.02551 7.76142 4.02551 5ZM9.76464 8C11.6664 8 13.2081 6.65685 13.2081 5C13.2081 3.34315 11.6664 2 9.76464 2C7.86286 2 6.32116 3.34315 6.32116 5C6.32116 6.65685 7.86286 8 9.76464 8Z" fill="#7C64F8"/>
<path d="M3.27156 13.3431C1.54948 14.8434 0.582031 16.8783 0.582031 19H2.87768C2.87768 17.4087 3.60327 15.8826 4.89483 14.7574C6.18638 13.6321 7.93811 13 9.76464 13C11.5912 13 13.3429 13.6321 14.6345 14.7574C15.926 15.8826 16.6516 17.4087 16.6516 19H18.9472C18.9472 16.8783 17.9798 14.8434 16.2577 13.3431C14.5357 11.8429 12.2 11 9.76464 11C7.32926 11 4.99363 11.8429 3.27156 13.3431Z" fill="#7C64F8"/>
</svg>
