<svg width="50" height="50" viewBox="0 0 60 60" fill="none" xmlns="http://www.w3.org/2000/svg">
<circle cx="30" cy="30" r="25" fill="#1DA1F2"/>
<path fillRule="evenodd" clipRule="evenodd" d="M45 20.3858C43.8971 20.8758 42.7101 21.2057 41.4652 21.3547C42.7361 20.5928 43.7121 19.3869 44.1711 17.95C42.9831 18.6559 41.6642 19.1669 40.2633 19.4439C39.1404 18.248 37.5395 17.5 35.7706 17.5C32.3718 17.5 29.616 20.2558 29.616 23.6546C29.616 24.1366 29.671 24.6065 29.776 25.0575C24.6604 24.8015 20.1257 22.3507 17.0899 18.6269C16.5599 19.5359 16.2569 20.5928 16.2569 21.7207C16.2569 23.8556 17.3418 25.7395 18.9947 26.8434C17.9848 26.8114 17.0369 26.5344 16.2059 26.0734V26.1504C16.2059 29.1332 18.3288 31.6201 21.1426 32.187C20.6266 32.327 20.0827 32.403 19.5217 32.403C19.1247 32.403 18.7387 32.364 18.3628 32.292C19.1457 34.7368 21.4196 36.5167 24.1124 36.5667C22.0065 38.2166 19.3527 39.2016 16.4689 39.2016C15.9709 39.2016 15.481 39.1726 15 39.1146C17.7238 40.8604 20.9586 41.8804 24.4344 41.8804C35.7546 41.8804 41.9452 32.502 41.9452 24.3695C41.9452 24.1026 41.9402 23.8366 41.9272 23.5736C43.1311 22.7037 44.1751 21.6197 45 20.3858Z" fill="#1E1E1E"/>
</svg>
