<svg width="25" height="25" viewBox="0 0 25 25" fill="none" xmlns="http://www.w3.org/2000/svg">
<path d="M12.4988 22.9164C10.9239 22.9208 9.36885 22.5645 7.95299 21.8747C7.43481 21.6226 6.93833 21.3282 6.46861 20.9945L6.3259 20.8903C5.03404 19.9368 3.97784 18.6999 3.23839 17.2747C2.47353 15.7995 2.07683 14.1613 2.08208 12.4997C2.08208 6.74671 6.74585 2.08301 12.4988 2.08301C18.2518 2.08301 22.9156 6.74671 22.9156 12.4997C22.9208 14.1605 22.5245 15.798 21.7603 17.2726C21.0219 18.697 19.9672 19.9334 18.677 20.8872C18.1903 21.2434 17.6738 21.5571 17.1332 21.8247L17.0499 21.8663C15.6331 22.5598 14.0762 22.919 12.4988 22.9164ZM12.4988 17.708C10.9379 17.705 9.50681 18.5768 8.79361 19.9653C11.1284 21.1217 13.8693 21.1217 16.2041 19.9653V19.9601C15.49 18.5731 14.0589 17.7032 12.4988 17.708ZM12.4988 15.6247C14.7552 15.6276 16.8357 16.8435 17.9457 18.808L17.9614 18.7945L17.9759 18.782L17.9582 18.7976L17.9478 18.8059C20.5822 16.53 21.5242 12.8563 20.31 9.59354C19.0957 6.3308 15.9812 4.16667 12.4999 4.16667C9.01852 4.16667 5.90402 6.3308 4.6898 9.59354C3.47559 12.8563 4.41756 16.53 7.05194 18.8059C8.16263 16.8424 10.243 15.6274 12.4988 15.6247ZM12.4988 14.583C10.1976 14.583 8.33215 12.7175 8.33215 10.4163C8.33215 8.11515 10.1976 6.24967 12.4988 6.24967C14.8 6.24967 16.6655 8.11515 16.6655 10.4163C16.6655 11.5214 16.2265 12.5812 15.4451 13.3626C14.6637 14.144 13.6039 14.583 12.4988 14.583ZM12.4988 8.33301C11.3482 8.33301 10.4155 9.26575 10.4155 10.4163C10.4155 11.5669 11.3482 12.4997 12.4988 12.4997C13.6494 12.4997 14.5822 11.5669 14.5822 10.4163C14.5822 9.26575 13.6494 8.33301 12.4988 8.33301Z" fill="#828282"/>
</svg>
