<svg width="25" height="25" viewBox="0 0 25 25" fill="none" xmlns="http://www.w3.org/2000/svg">
<g clip-path="url(#clip0_2740_9457)">
<path d="M4.16635 6.24967H2.08301V20.833C2.08301 21.9788 3.02051 22.9163 4.16635 22.9163H18.7497V20.833H4.16635V6.24967ZM20.8331 2.08301H8.33303C7.18719 2.08301 6.24969 3.02051 6.24969 4.16634V16.6663C6.24969 17.8122 7.18719 18.7497 8.33303 18.7497H20.8331C21.9789 18.7497 22.9164 17.8122 22.9164 16.6663V4.16634C22.9164 3.02051 21.9789 2.08301 20.8331 2.08301ZM20.8331 16.6663H8.33303V4.16634H20.8331V16.6663ZM12.4997 5.72884V15.1038L18.7497 10.4163L12.4997 5.72884Z" fill="#828282"/>
</g>
<defs>
<clipPath id="clip0_2740_9457">
<rect width="25.0001" height="25" fill="white"/>
</clipPath>
</defs>
</svg>
